<svg width="220" height="54" viewBox="0 0 220 54" fill="none" xmlns="http://www.w3.org/2000/svg">
<path d="M121.976 38.7481V30.4861C121.976 29.8381 121.868 29.4242 121.652 29.2442C121.472 29.0282 121.058 28.9202 120.41 28.9202H116.414C113.138 28.9202 111.5 27.3181 111.5 24.1141V15.2041C111.5 12.0361 113.174 10.4521 116.522 10.4521H121.814C125.162 10.4521 126.836 12.0361 126.836 15.2041V20.1722H121.922V15.9601C121.922 15.3121 121.814 14.8981 121.598 14.7181C121.382 14.5021 120.95 14.3941 120.302 14.3941H118.034C117.386 14.3941 116.954 14.5021 116.738 14.7181C116.522 14.8981 116.414 15.3121 116.414 15.9601V23.4662C116.414 24.1142 116.522 24.5461 116.738 24.7621C116.954 24.9421 117.386 25.0322 118.034 25.0322H121.976C125.288 25.0322 126.944 26.6162 126.944 29.7842V39.5042C126.944 42.6722 125.252 44.2561 121.868 44.2561H116.63C113.282 44.2561 111.608 42.6722 111.608 39.5042V34.5361H116.522V38.7481C116.522 39.3961 116.63 39.8283 116.846 40.0443C117.062 40.2243 117.494 40.3141 118.142 40.3141H120.41C121.058 40.3141 121.472 40.2243 121.652 40.0443C121.868 39.8283 121.976 39.3961 121.976 38.7481Z" fill="white"/>
<path d="M145.43 10.4521V14.3941H139.76V44.2561H134.9V14.3941H129.23V10.4521H145.43Z" fill="white"/>
<path d="M159.555 10.4521H164.469V39.5042C164.469 42.6722 162.777 44.2561 159.393 44.2561H153.399C150.015 44.2561 148.323 42.6722 148.323 39.5042V10.4521H153.237V38.7481C153.237 39.3961 153.345 39.8283 153.561 40.0443C153.777 40.2243 154.209 40.3141 154.857 40.3141H157.935C158.619 40.3141 159.051 40.2243 159.231 40.0443C159.447 39.8283 159.555 39.3961 159.555 38.7481V10.4521Z" fill="white"/>
<path d="M170.055 10.4521H181.827C185.175 10.4521 186.849 12.0361 186.849 15.2041V39.5042C186.849 42.6722 185.175 44.2561 181.827 44.2561H170.055V10.4521ZM181.935 38.8563V15.8521C181.935 15.2041 181.827 14.7901 181.611 14.6101C181.395 14.3942 180.963 14.2862 180.315 14.2862H174.969V40.4222H180.315C180.963 40.4222 181.395 40.3322 181.611 40.1522C181.827 39.9362 181.935 39.5043 181.935 38.8563Z" fill="white"/>
<path d="M192.633 10.4521H197.493V44.2561H192.633V10.4521Z" fill="white"/>
<path d="M208.345 10.4521H214.339C217.687 10.4521 219.361 12.0361 219.361 15.2041V39.5042C219.361 42.6722 217.687 44.2561 214.339 44.2561H208.345C204.961 44.2561 203.269 42.6722 203.269 39.5042V15.2041C203.269 12.0361 204.961 10.4521 208.345 10.4521ZM214.501 38.7481V15.9601C214.501 15.3121 214.393 14.8981 214.177 14.7181C213.961 14.5021 213.529 14.3941 212.881 14.3941H209.749C209.101 14.3941 208.669 14.5021 208.453 14.7181C208.273 14.8981 208.183 15.3121 208.183 15.9601V38.7481C208.183 39.3961 208.273 39.8283 208.453 40.0443C208.669 40.2243 209.101 40.3141 209.749 40.3141H212.881C213.529 40.3141 213.961 40.2243 214.177 40.0443C214.393 39.8283 214.501 39.3961 214.501 38.7481Z" fill="white"/>
<path d="M11.88 23.5742V15.8521C11.88 15.2041 11.772 14.7901 11.556 14.6101C11.34 14.3942 10.908 14.2862 10.26 14.2862H4.86V25.1402H10.26C10.908 25.1402 11.34 25.0502 11.556 24.8701C11.772 24.6542 11.88 24.2222 11.88 23.5742ZM11.88 38.8563V30.5401C11.88 29.8921 11.772 29.4782 11.556 29.2982C11.34 29.0822 10.908 28.9741 10.26 28.9741H4.86V40.4222H10.26C10.908 40.4222 11.34 40.3322 11.556 40.1522C11.772 39.9362 11.88 39.5043 11.88 38.8563ZM0 10.4521H11.718C15.102 10.4521 16.794 12.0361 16.794 15.2041V23.7902C16.794 25.6982 16.074 26.8142 14.634 27.1382C16.074 27.4982 16.794 28.5422 16.794 30.2702V39.5042C16.794 42.6722 15.102 44.2561 11.718 44.2561H0V10.4521Z" fill="#F40044"/>
<path d="M27.0097 40.3141H36.7837V44.2561H22.0957V10.4521H36.4057V14.3941H27.0097V24.8162H34.7857V28.7582H27.0097V40.3141Z" fill="#F40044"/>
<path d="M53.0253 44.2561L51.6753 36.4263H44.5473L43.3053 44.2561H38.4453L44.4393 10.4521H51.5133L57.9393 44.2561H53.0253ZM45.1413 32.4841H51.0273L47.9493 14.6641L45.1413 32.4841Z" fill="#F40044"/>
<path d="M75.0447 10.4521V14.3941H69.3747V44.2561H64.5147V14.3941H58.8447V10.4521H75.0447Z" fill="#F40044"/>
<path d="M103.96 18.0987C102.528 14.6427 100.069 12.7037 97.6924 10.8302C95.919 9.43222 94.2431 8.11216 93.0585 6.22637L92.846 5.8902C92.1457 4.78333 91.3548 3.52886 91.2293 2.47528C91.1039 1.40939 90.2817 0.650978 89.3828 0.712471C88.4699 0.786263 87.7626 1.67586 87.7626 2.75405V39.2811C86.3028 38.2398 84.505 37.6002 82.5365 37.6002C77.7354 37.6002 73.8262 41.2775 73.8262 45.7993C73.8262 50.3211 77.7354 53.9984 82.5365 53.9984C87.3376 53.9984 91.2468 50.3211 91.2468 45.7993V10.0553C92.6125 11.7608 94.2013 13.0152 95.7517 14.2369C97.8387 15.8808 99.8107 17.4345 100.832 19.8984C101.473 21.4357 101.779 23.1124 101.703 24.6047C101.511 28.2574 100.34 31.9306 98.6505 34.1976C98.0129 35.0462 98.0826 36.3417 98.8073 37.0878C99.525 37.8421 100.626 37.7519 101.264 36.9033C103.445 33.9885 104.946 29.3724 105.18 24.8588C105.295 22.6328 104.873 20.296 103.96 18.0987Z" fill="white"/>
</svg>
